#!OML:ASF F:\VICON\USERDATA\INSTALL\Justin_Nancy\Justin_Nancy.ASF
:FULLY-SPECIFIED
:DEGREES
334
root -5.53782 17.6978 10.2375 4.58659 -48.4159 -4.23211
lowerback 7.30425 -0.850846 0.722369
upperback 0.0144042 -0.936669 4.24644
thorax -4.02695 -0.45577 4.11182
lowerneck -13.923 -3.42192 -10.7648
upperneck 21.6096 -3.67797 5.64531
head 9.42202 -2.0414 3.29457
rclavicle 3.81667e-014 3.18055e-014
rhumerus -33.3318 -13.7806 -77.0717
rradius 28.8126
rwrist 5.80863
rhand -13.2629 12.9798
rfingers 7.12502
rthumb 12.8398 -16.6053
lclavicle 3.81667e-014 3.18055e-014
lhumerus -29.1931 11.9416 85.8111
lradius 23.4541
lwrist -13.2808
lhand -17.7256 23.8415
lfingers 7.12502
lthumb 8.53519 53.649
rfemur -9.62757 5.23183 28.3779
rtibia 13.3744
rfoot -1.43758 -2.79685
rtoes 7.93088
lfemur -19.5538 0.483149 -17.8464
ltibia 67.2056
lfoot 13.5467 -13.8415
ltoes 5.87017
335
root -5.62645 17.676 10.2798 5.45106 -48.3831 -5.16663
lowerback 7.49793 -0.772527 0.930944
upperback -0.0202967 -0.801145 4.46298
thorax -4.18122 -0.390646 4.21317
lowerneck -14.3506 -3.37574 -10.3578
upperneck 21.9702 -3.57314 5.22072
head 9.60368 -2.00569 3.09214
rclavicle -9.93923e-017 -9.54166e-015
rhumerus -32.9304 -13.6235 -77.2498
rradius 28.8659
rwrist 5.98368
rhand -12.9304 13.4305
rfingers 7.12502
rthumb 13.1603 -16.1342
lclavicle -9.93923e-017 -9.54166e-015
lhumerus -29.2479 12.5865 85.5118
lradius 23.3344
lwrist -13.9407
lhand -17.7697 23.8474
lfingers 7.12502
lthumb 8.49256 53.6566
rfemur -9.41149 5.89776 29.2018
rtibia 13.1342
rfoot -1.35398 -3.46204
rtoes 6.93444
lfemur -21.3991 1.25077 -16.8901
ltibia 68.1683
lfoot 12.0057 -13.3695
ltoes 3.69922
336
root -5.76955 17.7153 10.4313 4.78611 -48.8479 -4.44737
lowerback 6.56071 -0.568466 0.724947
upperback 0.301468 -0.598744 4.13384
thorax -3.33398 -0.296263 3.93523
lowerneck -15.4991 -3.35534 -9.32727
upperneck 23.1639 -3.49899 4.31224
head 10.2032 -1.99428 2.61226
rclavicle 3.44891e-014 -4.77083e-015
rhumerus -32.523 -13.7998 -77.6051
rradius 28.9047
rwrist 5.6509
rhand -13.5324 12.9377
rfingers 7.12502
rthumb 12.5799 -16.6636
lclavicle 3.44891e-014 -4.77083e-015
lhumerus -29.1238 12.1979 85.4078
lradius 23.0529
lwrist -13.455
lhand -18.0864 24.0811
lfingers 7.12502
lthumb 8.1869 53.9025
rfemur -8.21958 5.01104 28.6386
rtibia 12.9148
rfoot -2.36559 -2.36352
rtoes 6.36709
lfemur -21.4577 1.80188 -17.71
ltibia 68.279
lfoot 9.93715 -11.8618
ltoes 1.8877
337
root -5.87571 17.7234 10.5354 4.32852 -48.7545 -4.12787
lowerback 6.53497 -0.487567 0.636183
upperback 0.411087 -0.505368 3.98843
thorax -3.21213 -0.250292 3.82225
lowerneck -13.3654 -3.43863 -10.867
upperneck 21.371 -3.89663 6.33107
head 9.26659 -2.08386 3.52627
rclavicle 3.15074e-014 4.85035e-014
rhumerus -32.2479 -14.3784 -77.4803
rradius 28.8201
rwrist 6.43006
rhand -13.318 12.9437
rfingers 7.12502
rthumb 12.7866 -16.6447
lclavicle 3.15074e-014 4.85035e-014
lhumerus -29.0366 11.9958 85.2958
lradius 22.7758
lwrist -13.1544
lhand -18.3046 23.9204
lfingers 7.12502
lthumb 7.97636 53.7499
rfemur -7.20519 4.72788 28.4277
rtibia 12.6193
rfoot -2.92951 -2.38313
rtoes 7.1531
lfemur -22.1425 1.93541 -18.0588
ltibia 68.5461
lfoot 8.40903 -10.5971
ltoes 0.56267
338
root -5.97247 17.7212 10.6151 4.77377 -48.6927 -4.721
lowerback 6.55257 -0.388718 0.885614
upperback 0.418273 -0.352235 4.16884
thorax -3.22457 -0.177811 3.85609
lowerneck -15.2577 -3.35499 -9.20287
upperneck 23.1709 -3.54123 4.24781
head 10.1589 -2.01351 2.56472
rclavicle -2.83268e-014 -3.81667e-014
rhumerus -32.0381 -14.6902 -77.1035
rradius 28.7091
rwrist 7.77401
rhand -12.5814 13.9373
rfingers 7.12502
rthumb 13.4967 -15.6054
lclavicle -2.83268e-014 -3.81667e-014
lhumerus -29.1631 12.4487 85.185
lradius 22.7953
lwrist -13.375
lhand -18.4208 23.9819
lfingers 7.12502
lthumb 7.86419 53.8157
rfemur -6.69356 4.62657 28.9268
rtibia 12.5563
rfoot -3.44488 -2.54337
rtoes 8.77826
lfemur -23.3738 2.32403 -17.6089
ltibia 68.7858
lfoot 7.31083 -9.85655
ltoes -0.904709
339
root -6.05862 17.7064 10.6935 5.17531 -48.5227 -5.30308
lowerback 6.72854 -0.339954 1.21295
upperback 0.424922 -0.255569 4.28574
thorax -3.32328 -0.134387 3.78687
lowerneck -13.7594 -3.50412 -10.3182
upperneck 21.7513 -3.90664 5.56943
head 9.44902 -2.1243 3.16749
rclavicle 5.99336e-014 4.45278e-014
rhumerus -31.685 -13.9875 -77.4266
rradius 28.9331
rwrist 6.91612
rhand -13.0928 13.6467
rfingers 7.12502
rthumb 13.0037 -15.928
lclavicle 5.99336e-014 4.45278e-014
lhumerus -29.374 12.7519 85.1081
lradius 23.0417
lwrist -13.113
lhand -18.286 24.3833
lfingers 7.12502
lthumb 7.99433 54.2121
rfemur -6.53883 4.43403 29.4141
rtibia 13.1027
rfoot -4.39479 -2.96998
rtoes 12.6548
lfemur -24.5981 2.57219 -17.1835
ltibia 69.0086
lfoot 6.12641 -9.09422
ltoes -2.01173
340
root -6.13794 17.6685 10.77 5.71558 -48.2469 -6.06477
lowerback 6.95837 -0.379354 1.73869
upperback 0.390526 -0.256089 4.38244
thorax -3.48988 -0.142562 3.59493
lowerneck -13.7585 -3.38993 -10.1444
upperneck 21.8656 -3.76636 5.45723
head 9.46999 -2.05922 3.11841
rclavicle -1.19271e-014 1.59028e-015
rhumerus -31.4282 -13.3445 -77.7435
rradius 29.1885
rwrist 6.34975
rhand -13.3485 13.2174
rfingers 7.12502
rthumb 12.7572 -16.3728
lclavicle -1.19271e-014 1.59028e-015
lhumerus -29.5245 12.7254 85.0071
lradius 23.2185
lwrist -12.2652
lhand -17.6299 24.7347
lfingers 7.12502
lthumb 8.62752 54.5384
rfemur -6.5315 4.51673 30.04
rtibia 13.8802
rfoot -5.38469 -3.58589
rtoes 15.5381
lfemur -25.8002 2.75329 -16.6573
ltibia 69.1095
lfoot 4.91586 -8.3768
ltoes -1.96015
341
root -6.22708 17.6378 10.8512 5.74007 -48.1525 -6.07364
lowerback 6.95724 -0.347035 1.78214
upperback 0.362158 -0.208568 4.3553
thorax -3.52127 -0.119319 3.5376
lowerneck -15.2516 -3.13158 -8.96067
upperneck 23.5342 -3.26419 4.09327
head 10.2595 -1.89041 2.51075
rclavicle 9.81996e-014 -1.98785e-014
rhumerus -31.2372 -12.658 -78.0548
rradius 29.4766
rwrist 6.08227
rhand -13.4954 12.5872
rfingers 7.12502
rthumb 12.6156 -17.0119
lclavicle 9.81996e-014 -1.98785e-014
lhumerus -29.727 12.7326 84.904
lradius 23.3308
lwrist -11.7725
lhand -17.0187 24.8223
lfingers 7.12502
lthumb 9.21731 54.6008
rfemur -6.71875 4.66668 30.1009
rtibia 15.0683
rfoot -6.37476 -3.91739
rtoes 15.7228
lfemur -26.7969 2.87956 -16.7808
ltibia 68.8773
lfoot 3.8622 -7.64507
ltoes -1.40562
342
root -6.31926 17.6176 10.9331 5.76795 -48.2928 -6.1031
lowerback 6.97122 -0.176459 1.79193
upperback 0.342463 0.0211975 4.33932
thorax -3.56064 -0.00488583 3.49295
lowerneck -13.1513 -3.35151 -10.8153
upperneck 21.8409 -3.79009 6.14027
head 9.37565 -2.06377 3.47259
rclavicle -4.64162e-014 5.56597e-015
rhumerus -31.02 -12.1501 -78.2816
rradius 29.6743
rwrist 5.68252
rhand -13.512 12.389
rfingers 7.12502
rthumb 12.5996 -17.211
lclavicle -4.64162e-014 5.56597e-015
lhumerus -29.8985 12.454 84.9151
lradius 23.5603
lwrist -11.2779
lhand -16.6973 24.9772
lfingers 7.12502
lthumb 9.5274 54.7418
rfemur -6.86144 4.63233 30.1623
rtibia 16.2521
rfoot -7.36898 -3.89018
rtoes 14.6908
lfemur -27.6479 3.17836 -16.9122
ltibia 68.4148
lfoot 2.47604 -6.91277
ltoes -3.06484
343
root -6.40667 17.5873 11.0069 5.35036 -48.4798 -5.73117
lowerback 7.22692 -0.0179102 1.48659
upperback 0.383172 0.214695 4.19039
thorax -3.67141 0.0966257 3.49197
lowerneck -13.1278 -3.49133 -10.624
upperneck 21.9053 -4.00343 5.99952
head 9.40729 -2.16392 3.36518
rclavicle -9.59136e-014 -7.15625e-015
rhumerus -30.5903 -12.0987 -78.5286
rradius 29.5985
rwrist 5.45844
rhand -13.693 12.2235
rfingers 7.12502
rthumb 12.4251 -17.3872
lclavicle -9.59136e-014 -7.15625e-015
lhumerus -30.0724 12.5876 84.6363
lradius 23.9812
lwrist -10.9183
lhand -16.3128 25.1164
lfingers 7.12502
lthumb 9.89842 54.8637
rfemur -6.62637 5.0244 29.9553
rtibia 16.9844
rfoot -7.72323 -4.11898
rtoes 11.2793
lfemur -28.3212 3.55991 -17.3352
ltibia 67.7492
lfoot 0.976569 -6.0733
ltoes -10.2653
